<svg width="215" height="82" viewBox="0 0 215 82" fill="none" xmlns="http://www.w3.org/2000/svg">
<path d="M214.822 1.90856L191.327 36.3117C190.777 37.1173 189.187 36.8175 189.355 35.8706C192.474 18.2402 172.113 15.2267 157.641 15.9523C156.449 16.0113 156.346 14.2253 157.503 13.9448L213.654 0.359837C214.603 0.129641 215.358 1.1274 214.822 1.90856Z" fill="url(#paint0_linear_904_5303)"/>
<path d="M27.6191 81.6681C22.43 81.6681 17.7527 80.4529 13.5872 78.0282C9.42165 75.6034 6.11898 72.3365 3.67916 68.2274C1.23935 64.124 0.0253906 59.4893 0.0253906 54.3402C0.0253906 49.1911 1.2453 44.4264 3.67916 40.2834C6.11303 36.1404 9.39784 32.8565 13.5277 30.4261C17.6575 28.0013 22.311 26.7861 27.5001 26.7861C31.743 26.7861 35.5396 27.5887 38.8779 29.1939C42.2163 30.7991 44.9537 33.043 47.0721 35.9143C49.1966 38.7912 50.4522 42.1316 50.8449 45.9411V62.4057C50.3748 66.2153 49.0954 69.5726 47.0127 72.4891C44.9299 75.4 42.2342 77.6608 38.9375 79.266C35.6348 80.8712 31.862 81.6738 27.6191 81.6738V81.6681ZM28.9164 74.1621C34.7362 74.1621 39.3719 72.3309 42.8293 68.6739C46.2867 65.017 48.0183 60.2014 48.0183 54.2271C48.0183 50.2707 47.2328 46.8003 45.6618 43.8103C44.0908 40.826 41.8474 38.4917 38.9375 36.8073C36.0275 35.1287 32.6475 34.2865 28.7973 34.2865C24.9472 34.2865 21.5017 35.1456 18.4787 36.8639C15.4498 38.5821 13.0516 40.9334 11.2842 43.9233C9.51686 46.9133 8.6302 50.3441 8.6302 54.2271C8.6302 58.1101 9.51686 61.5466 11.2842 64.5309C13.0516 67.5209 15.4736 69.8722 18.5382 71.5904C21.6029 73.3087 25.0603 74.1678 28.9164 74.1678V74.1621ZM47.5482 80.549V66.4357L49.1966 53.4415L47.5482 40.7864V27.9053H55.921V80.549H47.5482Z" fill="white"/>
<path d="M71.7236 80.5494V14.9453H80.0963V40.7868L78.448 53.4418L80.0963 66.436V80.5494H71.7236ZM100.496 81.6685C96.2527 81.6685 92.4382 80.8433 89.0582 79.2042C85.6782 77.5651 82.9051 75.3042 80.745 72.4273C78.5789 69.556 77.2638 66.21 76.7937 62.4004V45.9358C77.2638 42.0528 78.6027 38.6729 80.8045 35.8016C83.0063 32.9303 85.815 30.7034 89.2367 29.1378C92.6584 27.5721 96.4074 26.7865 100.502 26.7865C105.613 26.7865 110.213 28.0017 114.301 30.4264C118.39 32.8512 121.633 36.1407 124.031 40.2837C126.429 44.4267 127.625 49.1123 127.625 54.3405C127.625 59.5687 126.447 64.1243 124.09 68.2278C121.734 72.3369 118.491 75.6038 114.361 78.0285C110.231 80.4533 105.613 81.6685 100.502 81.6685H100.496ZM98.9603 74.1625C102.888 74.1625 106.351 73.3203 109.338 71.6416C112.326 69.963 114.682 67.6117 116.414 64.5822C118.14 61.5583 119.008 58.1048 119.008 54.2218C119.008 50.3388 118.14 46.8854 116.414 43.8615C114.682 40.8376 112.344 38.4864 109.398 36.802C106.452 35.1234 103.048 34.2812 99.1983 34.2812C95.3482 34.2812 91.9443 35.1234 88.9987 36.802C86.0531 38.4807 83.7501 40.832 82.1018 43.8615C80.4534 46.891 79.6263 50.3388 79.6263 54.2218C79.6263 58.1048 80.4534 61.5583 82.1018 64.5822C83.7501 67.606 86.0293 69.9573 88.9392 71.6416C91.8491 73.3203 95.1875 74.1625 98.9603 74.1625Z" fill="white"/>
<path d="M156.157 81.6707C153.17 81.6707 150.302 81.2807 147.546 80.495C144.791 79.7094 142.298 78.6072 140.06 77.1885C137.817 75.7698 135.835 74.0912 134.104 72.1468L139.531 66.9921C141.732 69.5299 144.226 71.4177 147.017 72.6499C149.808 73.882 152.932 74.4981 156.389 74.4981C159.847 74.4981 162.858 73.8255 164.94 72.4803C167.023 71.1351 168.065 69.2699 168.065 66.8791C168.065 64.6408 167.339 62.9 165.881 61.6678C164.423 60.4357 162.518 59.4296 160.162 58.6439C157.805 57.8583 155.324 57.1122 152.729 56.4057C150.135 55.6992 147.677 54.8005 145.356 53.7153C143.036 52.6358 141.131 51.1379 139.638 49.2332C138.144 47.3284 137.394 44.7737 137.394 41.5633C137.394 38.579 138.18 35.9846 139.751 33.7803C141.322 31.576 143.524 29.8577 146.356 28.6256C149.189 27.3934 152.604 26.7773 156.615 26.7773C160.626 26.7773 164.554 27.4895 167.934 28.9082C171.314 30.3269 174.027 32.4182 176.068 35.182L170.641 40.3368C169.07 38.319 167.047 36.7533 164.565 35.6342C162.09 34.5151 159.317 33.9555 156.252 33.9555C152.712 33.9555 150.022 34.6112 148.171 35.9168C146.32 37.2224 145.398 38.9237 145.398 41.015C145.398 43.1063 146.142 44.6211 147.642 45.7741C149.135 46.9328 151.039 47.8654 153.36 48.5719C155.681 49.2841 158.139 49.9906 160.733 50.7027C163.328 51.4149 165.803 52.3475 168.16 53.5005C170.516 54.6592 172.426 56.2248 173.878 58.2031C175.33 60.1813 176.062 62.8491 176.062 66.2121C176.062 70.9147 174.271 74.6677 170.695 77.4711C167.118 80.2689 162.263 81.6707 156.133 81.6707H156.157Z" fill="white"/>
<defs>
<linearGradient id="paint0_linear_904_5303" x1="175.546" y1="13.7688" x2="229.391" y2="13.4199" gradientUnits="userSpaceOnUse">
<stop stop-color="#4F39FF"/>
<stop offset="1" stop-color="#B4B6F6"/>
</linearGradient>
</defs>
</svg>
